#N canvas 284 199 671 436 10;
#X obj 360 120 hsl 64 12 0 1 0 0 empty empty door 20 6 1 8 -262130
-1 -1 0 1;
#N canvas 98 95 674 195 wood 0;
#X obj 232 1 inlet~;
#X obj 483 62 *~ 0.2;
#X obj 232 123 outlet~;
#X obj 164 62 bp~ 250 2;
#X obj 242 62 bp~ 395 2;
#X obj 86 62 bp~ 125 1;
#X obj 1 62 bp~ 62.5 1;
#X obj 322 62 bp~ 560 3;
#X obj 401 62 bp~ 790 3;
#X connect 0 0 1 0;
#X connect 0 0 3 0;
#X connect 0 0 4 0;
#X connect 0 0 5 0;
#X connect 0 0 6 0;
#X connect 0 0 7 0;
#X connect 0 0 8 0;
#X connect 1 0 2 0;
#X connect 3 0 2 0;
#X connect 4 0 2 0;
#X connect 5 0 2 0;
#X connect 6 0 2 0;
#X connect 7 0 2 0;
#X connect 8 0 2 0;
#X restore 357 182 pd wood;
#N canvas 76 169 666 730 stickslip 0;
#X obj 8 394 timer;
#X obj 8 318 metro;
#X obj 83 142 swap 1;
#X obj 84 165 -;
#X obj 8 114 t f f;
#X obj 8 155 change;
#X obj 8 43 line;
#X obj 8 370 t b b;
#X obj 8 546 pack f f;
#X obj 8 641 *~;
#X obj 8 417 min 100;
#X obj 8 439 / 100;
#X obj 114 305 * 60;
#X obj 114 327 + 3;
#X obj 68 241 random 1000;
#X obj 68 262 / 1000;
#X obj 68 326 *;
#X obj 84 188 t f f;
#X obj 68 349 +;
#X obj 8 460 sqrt;
#X msg 8 566 \$1 \, 0 \$2;
#X obj 8 347 t b b;
#X obj 84 304 * 6;
#X obj 8 524 sqrt;
#X obj 8 503 + 0.1;
#X obj 8 481 t f f;
#X obj 8 1 inlet force;
#X obj 8 662 outlet~ pulse;
#X obj 8 588 vline~;
#X msg 8 22 \$1 1;
#X obj 8 135 > 0.1;
#X connect 0 0 10 0;
#X connect 1 0 21 0;
#X connect 2 0 3 0;
#X connect 2 1 3 1;
#X connect 3 0 17 0;
#X connect 4 0 30 0;
#X connect 4 1 2 0;
#X connect 5 0 1 0;
#X connect 6 0 4 0;
#X connect 7 0 0 0;
#X connect 7 1 0 1;
#X connect 8 0 20 0;
#X connect 9 0 27 0;
#X connect 10 0 11 0;
#X connect 11 0 19 0;
#X connect 12 0 13 0;
#X connect 13 0 18 1;
#X connect 14 0 15 0;
#X connect 15 0 16 0;
#X connect 16 0 18 0;
#X connect 17 0 22 0;
#X connect 17 1 12 0;
#X connect 18 0 1 1;
#X connect 19 0 25 0;
#X connect 20 0 28 0;
#X connect 21 0 7 0;
#X connect 21 1 14 0;
#X connect 22 0 16 1;
#X connect 23 0 8 0;
#X connect 24 0 23 0;
#X connect 25 0 24 0;
#X connect 25 1 8 1;
#X connect 26 0 29 0;
#X connect 28 0 9 1;
#X connect 28 0 9 0;
#X connect 29 0 6 0;
#X connect 30 0 5 0;
#X restore 357 160 pd stickslip;
#N canvas 26 189 281 384 squarepanel 0;
#X obj 54 212 dfbef 16 0.05;
#X obj 54 189 dfbef 10.12 0.05;
#X obj 54 166 dfbef 7.14 0.05;
#X obj 54 143 dfbef 5.48 0.05;
#X obj 54 120 dfbef 8 0.05;
#X obj 54 97 dfbef 6.27 0.05;
#X obj 54 74 dfbef 5.06 0.05;
#X obj 54 51 dfbef 4.52 0.05;
#X obj 2 280 hip~ 125;
#X obj 3 1 inlet~;
#X obj 2 303 outlet~;
#X connect 0 0 8 0;
#X connect 1 0 8 0;
#X connect 2 0 8 0;
#X connect 3 0 8 0;
#X connect 4 0 8 0;
#X connect 5 0 8 0;
#X connect 6 0 8 0;
#X connect 7 0 8 0;
#X connect 8 0 10 0;
#X connect 9 0 7 0;
#X connect 9 0 6 0;
#X connect 9 0 5 0;
#X connect 9 0 4 0;
#X connect 9 0 3 0;
#X connect 9 0 2 0;
#X connect 9 0 1 0;
#X connect 9 0 0 0;
#X restore 357 204 pd squarepanel;
#X obj 18 130 abs;
#X floatatom 18 152 5 0 0 0 - - -, f 5;
#X obj 18 271 vsl 15 100 0 1 0 0 empty empty empty 0 -9 0 10 -232576
-1 -1 0 1;
#X floatatom 367 137 5 0 0 0 - - -, f 5;
#X obj 18 194 clip 0 1;
#X obj 18 216 sqrt;
#X floatatom 155 202 5 0 0 0 - - -, f 5;
#X obj 155 270 vsl 15 100 0 30 0 0 empty empty empty 0 -9 0 10 -204800
-1 -1 0 1;
#X floatatom 180 245 5 0 0 0 - - -, f 5;
#X obj 180 270 vsl 15 100 0 1 0 0 empty empty empty 0 -9 0 10 -232576
-1 -1 0 1;
#X obj 357 347 *~;
#X msg 376 301 \$1 20;
#X obj 376 323 line~;
#X obj 18 238 sqrt;
#X obj 357 225 *~ 0.5;
#X obj 379 280 hsl 100 15 0 1 0 0 empty empty vol -2 8 0 10 -204800
-1 -1 0 1;
#X obj 578 203 vsl 15 55 0 1 0 0 empty empty empty 0 -9 0 10 -262130
-1 -1 5400 1;
#X msg 578 271 \$1 20;
#X obj 578 293 line~;
#X obj 560 321 *~;
#X obj 560 127 catch~ out;
#X obj 560 343 hip~ 5;
#X obj 560 365 clip~ -1 1;
#X obj 561 395 dac~ 1 2;
#X obj 357 369 throw~ out;
#X obj 180 378 s energy;
#X obj 376 258 r energy;
#X obj 578 153 loadbang;
#X msg 578 175 1;
#X obj 18 379 s speed;
#X obj 357 96 r speed;
#X obj 21 111 hsl 100 15 0 0.1 0 0 empty empty velocity -2 8 0 10 -204800
-1 -1 0 1;
#X obj 158 111 hsl 100 15 0 1 0 0 empty empty U -2 8 0 10 -203904 -1
-1 0 1;
#X obj 18 77 r velocity;
#X obj 155 77 r U;
#X obj 180 223 clip 0 1;
#X text 14 11 Original patch by Andy J. Farnell.;
#X text 12 37 in order to be used with;
#X text 14 24 Modified by Nicola Ariutti (http://www.limulo.net);
#X text 13 49 the Godot game engine (https://godotengine.org/).;
#X connect 0 0 2 0;
#X connect 0 0 7 0;
#X connect 1 0 3 0;
#X connect 2 0 1 0;
#X connect 3 0 18 0;
#X connect 4 0 5 0;
#X connect 5 0 8 0;
#X connect 6 0 33 0;
#X connect 8 0 9 0;
#X connect 9 0 17 0;
#X connect 10 0 11 0;
#X connect 10 0 39 0;
#X connect 12 0 13 0;
#X connect 13 0 29 0;
#X connect 14 0 28 0;
#X connect 15 0 16 0;
#X connect 16 0 14 1;
#X connect 17 0 6 0;
#X connect 18 0 14 0;
#X connect 19 0 15 0;
#X connect 20 0 21 0;
#X connect 21 0 22 0;
#X connect 22 0 23 1;
#X connect 23 0 25 0;
#X connect 24 0 23 0;
#X connect 25 0 26 0;
#X connect 26 0 27 0;
#X connect 26 0 27 1;
#X connect 30 0 19 0;
#X connect 31 0 32 0;
#X connect 32 0 20 0;
#X connect 34 0 0 0;
#X connect 35 0 4 0;
#X connect 36 0 10 0;
#X connect 37 0 35 0;
#X connect 38 0 36 0;
#X connect 39 0 12 0;
