#N canvas 546 232 495 566 10;
#X obj 40 101 hsl 64 12 0 1 0 0 empty empty door 20 6 1 8 -262144 -1
-1 0 1;
#N canvas 100 78 674 195 wood 0;
#X obj 232 1 inlet~;
#X obj 483 62 *~ 0.2;
#X obj 232 123 outlet~;
#X obj 164 62 bp~ 250 2;
#X obj 242 62 bp~ 395 2;
#X obj 86 62 bp~ 125 1;
#X obj 1 62 bp~ 62.5 1;
#X obj 322 62 bp~ 560 3;
#X obj 401 62 bp~ 790 3;
#X connect 0 0 1 0;
#X connect 0 0 3 0;
#X connect 0 0 4 0;
#X connect 0 0 5 0;
#X connect 0 0 6 0;
#X connect 0 0 7 0;
#X connect 0 0 8 0;
#X connect 1 0 2 0;
#X connect 3 0 2 0;
#X connect 4 0 2 0;
#X connect 5 0 2 0;
#X connect 6 0 2 0;
#X connect 7 0 2 0;
#X connect 8 0 2 0;
#X restore 37 163 pd wood;
#N canvas 152 158 280 607 stickslip 0;
#X obj 8 344 timer;
#X obj 8 537 vline~;
#X obj 8 268 metro;
#X obj 83 92 swap 1;
#X obj 84 115 -;
#X obj 8 64 t f f;
#X obj 8 105 change;
#X obj 8 43 line;
#X msg 8 22 \$1 100;
#X obj 8 320 t b b;
#X obj 8 496 pack f f;
#X obj 8 561 *~;
#X obj 8 367 min 100;
#X obj 8 389 / 100;
#X obj 114 255 * 60;
#X obj 114 277 + 3;
#X obj 68 191 random 1000;
#X obj 68 212 / 1000;
#X obj 68 276 *;
#X obj 84 138 t f f;
#X obj 68 299 +;
#X obj 8 410 sqrt;
#X msg 8 516 \$1 \, 0 \$2;
#X obj 8 297 t b b;
#X obj 84 254 * 6;
#X obj 8 474 sqrt;
#X obj 8 453 + 0.1;
#X obj 8 431 t f f;
#X obj 8 1 inlet force;
#X obj 8 582 outlet~ pulse;
#X obj 8 85 > 0.01;
#X connect 0 0 12 0;
#X connect 1 0 11 0;
#X connect 1 0 11 1;
#X connect 2 0 23 0;
#X connect 3 0 4 0;
#X connect 3 1 4 1;
#X connect 4 0 19 0;
#X connect 5 0 30 0;
#X connect 5 1 3 0;
#X connect 6 0 2 0;
#X connect 7 0 5 0;
#X connect 8 0 7 0;
#X connect 9 0 0 0;
#X connect 9 1 0 1;
#X connect 10 0 22 0;
#X connect 11 0 29 0;
#X connect 12 0 13 0;
#X connect 13 0 21 0;
#X connect 14 0 15 0;
#X connect 15 0 20 1;
#X connect 16 0 17 0;
#X connect 17 0 18 0;
#X connect 18 0 20 0;
#X connect 19 0 24 0;
#X connect 19 1 14 0;
#X connect 20 0 2 1;
#X connect 21 0 27 0;
#X connect 22 0 1 0;
#X connect 23 0 9 0;
#X connect 23 1 16 0;
#X connect 24 0 18 1;
#X connect 25 0 10 0;
#X connect 26 0 25 0;
#X connect 27 0 26 0;
#X connect 27 1 10 1;
#X connect 28 0 8 0;
#X connect 30 0 6 0;
#X restore 37 141 pd stickslip;
#N canvas 26 189 281 384 squarepanel 0;
#X obj 54 212 dfbef 16 0.05;
#X obj 54 189 dfbef 10.12 0.05;
#X obj 54 166 dfbef 7.14 0.05;
#X obj 54 143 dfbef 5.48 0.05;
#X obj 54 120 dfbef 8 0.05;
#X obj 54 97 dfbef 6.27 0.05;
#X obj 54 74 dfbef 5.06 0.05;
#X obj 54 51 dfbef 4.52 0.05;
#X obj 2 280 hip~ 125;
#X obj 3 1 inlet~;
#X obj 2 303 outlet~;
#X connect 0 0 8 0;
#X connect 1 0 8 0;
#X connect 2 0 8 0;
#X connect 3 0 8 0;
#X connect 4 0 8 0;
#X connect 5 0 8 0;
#X connect 6 0 8 0;
#X connect 7 0 8 0;
#X connect 8 0 10 0;
#X connect 9 0 7 0;
#X connect 9 0 6 0;
#X connect 9 0 5 0;
#X connect 9 0 4 0;
#X connect 9 0 3 0;
#X connect 9 0 2 0;
#X connect 9 0 1 0;
#X connect 9 0 0 0;
#X restore 37 185 pd squarepanel;
#N canvas 162 137 740 632 output 0;
#X obj 161 104 vsl 15 55 0 1 0 0 empty empty empty 0 -9 0 10 -262130
-1 -1 3780 1;
#X obj 106 147 tgl 15 0 empty empty cut 17 7 0 10 -262144 -1 -1 0 1
;
#X msg 331 205 \$1 20;
#X msg 283 208 \$1 20;
#X obj 331 227 line~;
#X obj 283 230 line~;
#X obj 331 162 swap 1;
#X obj 331 184 -;
#X obj 284 260 *~;
#X obj 107 106 tgl 15 0 empty empty DSP 17 7 0 10 -4034 -1 -1 1 1;
#X msg 107 54 \; pd dsp \$1;
#X obj 285 489 dac~;
#X obj 284 315 *~;
#X obj 284 287 catch~ out;
#X obj 38 52 loadbang;
#X msg 38 127 0;
#X msg 38 157 1;
#X obj 284 417 hip~ 5;
#X obj 284 439 clip~ -1 1;
#X obj 618 91 t f f;
#X msg 618 69 0.7;
#X connect 0 0 3 0;
#X connect 1 0 6 0;
#X connect 2 0 4 0;
#X connect 3 0 5 0;
#X connect 4 0 8 1;
#X connect 5 0 8 0;
#X connect 6 0 7 0;
#X connect 6 1 7 1;
#X connect 7 0 2 0;
#X connect 8 0 12 1;
#X connect 9 0 10 0;
#X connect 12 0 17 0;
#X connect 13 0 12 0;
#X connect 14 0 20 0;
#X connect 14 0 15 0;
#X connect 14 0 16 0;
#X connect 15 0 9 0;
#X connect 15 0 1 0;
#X connect 17 0 18 0;
#X connect 18 0 11 0;
#X connect 18 0 11 1;
#X connect 19 1 0 0;
#X connect 20 0 19 0;
#X coords 0 -1 1 1 85 100 2 100 100;
#X restore 37 425 pd output;
#X obj 37 379 throw~ out;
#X obj 198 119 udpreceive;
#X msg 198 98 port 6666;
#X floatatom 198 252 5 0 0 0 - - -, f 5;
#X obj 198 140 unpackOSC;
#X obj 198 271 abs;
#X floatatom 198 293 5 0 0 0 - - -, f 5;
#X obj 198 412 vsl 15 100 0 1 0 0 empty empty empty 0 -9 0 10 -232576
-1 -1 0 1;
#X floatatom 47 118 5 0 0 0 - - -, f 5;
#X obj 198 335 clip 0 1;
#X obj 198 313 * 10;
#X obj 198 357 sqrt;
#X obj 198 160 routeOSC /door/velocity /door/U;
#X floatatom 305 247 5 0 0 0 - - -, f 5;
#X floatatom 330 386 5 0 0 0 - - -, f 5;
#X obj 330 411 vsl 15 100 0 1 0 0 empty empty empty 0 -9 0 10 -232576
-1 -1 0 1;
#X obj 37 348 *~;
#X obj 60 240 r energy;
#X msg 60 292 \$1 20;
#X obj 60 314 line~;
#X obj 330 520 s energy;
#X obj 37 79 r velocity;
#X obj 198 520 s velocity;
#X obj 37 206 *~ 0.5;
#X obj 363 83 tgl 15 0 auto empty OSC 17 7 0 10 -4034 -1 -1 1 1;
#X obj 344 183 tgl 15 0 empty auto empty 17 7 0 10 -262144 -1 -1 1
1;
#X obj 305 208 spigot;
#X obj 237 183 tgl 15 0 empty auto empty 17 7 0 10 -262144 -1 -1 1
1;
#X obj 198 208 spigot;
#X obj 63 273 hsl 100 15 0 1 0 0 empty empty vol -2 -8 0 10 -262130
-1 -1 0 1;
#X obj 198 77 loadbang;
#X obj 305 411 vsl 15 100 0 30 0 0 empty empty empty 0 -9 0 10 -204800
-1 -1 0 1;
#X obj 330 342 clip 0 1;
#X obj 330 320 * 10;
#X obj 340 364 sqrt;
#X text 14 11 Original patch by Andy J. Farnell.;
#X text 14 24 Modified by Nicola Ariutti (http://www.limulo.net);
#X connect 0 0 2 0;
#X connect 0 0 13 0;
#X connect 1 0 3 0;
#X connect 2 0 1 0;
#X connect 3 0 28 0;
#X connect 6 0 9 0;
#X connect 7 0 6 0;
#X connect 8 0 10 0;
#X connect 9 0 17 0;
#X connect 10 0 11 0;
#X connect 11 0 15 0;
#X connect 12 0 27 0;
#X connect 14 0 16 0;
#X connect 15 0 14 0;
#X connect 16 0 12 0;
#X connect 17 0 33 0;
#X connect 17 1 31 0;
#X connect 18 0 36 0;
#X connect 18 0 38 0;
#X connect 19 0 20 0;
#X connect 20 0 25 0;
#X connect 21 0 5 0;
#X connect 22 0 34 0;
#X connect 23 0 24 0;
#X connect 24 0 21 1;
#X connect 26 0 0 0;
#X connect 28 0 21 0;
#X connect 30 0 31 1;
#X connect 31 0 18 0;
#X connect 32 0 33 1;
#X connect 33 0 8 0;
#X connect 34 0 23 0;
#X connect 35 0 7 0;
#X connect 37 0 39 0;
#X connect 37 0 19 0;
#X connect 38 0 37 0;
